<?xml version="1.0" encoding="UTF-8"?>
<svg xmlns="http://www.w3.org/2000/svg" xmlns:xlink="http://www.w3.org/1999/xlink" width="27px" height="24px" viewBox="0 0 27 24" version="1.1">
<g id="surface1">
<path style=" stroke:none;fill-rule:nonzero;fill:rgb(3.529412%,48.235294%,65.882355%);fill-opacity:1;" d="M 11.957031 -0.0390625 C 12.027344 -0.0390625 12.097656 -0.0390625 12.167969 -0.0390625 C 14.546875 -0.03125 14.546875 -0.03125 15.535156 0.464844 C 15.496094 0.953125 15.234375 1.257812 14.945312 1.632812 C 14.894531 1.699219 14.84375 1.765625 14.792969 1.832031 C 14.332031 2.433594 13.839844 2.992188 13.316406 3.535156 C 13.257812 3.59375 13.199219 3.652344 13.140625 3.714844 C 11.929688 4.972656 11.929688 4.972656 11.339844 5.40625 C 10.808594 5.8125 10.464844 6.34375 10.101562 6.894531 C 9.988281 7.066406 9.875 7.230469 9.761719 7.398438 C 8.261719 9.601562 7.011719 11.945312 6.011719 14.417969 C 6.800781 14.183594 7.527344 13.832031 8.265625 13.472656 C 8.332031 13.4375 8.398438 13.40625 8.464844 13.371094 C 10.457031 12.398438 12.347656 11.257812 14.148438 9.953125 C 14.210938 9.90625 14.277344 9.859375 14.34375 9.8125 C 15.242188 9.15625 16.09375 8.460938 16.921875 7.722656 C 16.96875 7.679688 17.015625 7.636719 17.066406 7.589844 C 18.355469 6.433594 19.507812 5.21875 20.527344 3.8125 C 21.796875 4.378906 22.632812 6.390625 23.117188 7.628906 C 23.234375 7.957031 23.34375 8.292969 23.445312 8.628906 C 23.46875 8.707031 23.496094 8.785156 23.519531 8.867188 C 23.730469 9.589844 23.730469 9.589844 23.578125 9.953125 C 23.433594 10.15625 23.292969 10.335938 23.128906 10.523438 C 23.082031 10.578125 23.03125 10.632812 22.984375 10.691406 C 21.972656 11.832031 20.894531 12.921875 19.695312 13.859375 C 19.523438 14.007812 19.351562 14.15625 19.179688 14.300781 C 16.382812 16.652344 16.382812 16.652344 15.71875 16.652344 C 15.695312 16.726562 15.671875 16.804688 15.648438 16.886719 C 15.542969 17.183594 15.421875 17.453125 15.28125 17.734375 C 14.617188 19.089844 14.191406 20.460938 13.960938 21.953125 C 17.0625 20.371094 19.828125 18.3125 22.386719 15.960938 C 22.4375 15.914062 22.488281 15.871094 22.539062 15.824219 C 22.757812 15.617188 22.953125 15.414062 23.140625 15.175781 C 23.191406 15.109375 23.246094 15.042969 23.300781 14.976562 C 23.363281 14.976562 23.421875 14.976562 23.484375 14.976562 C 22.964844 17.152344 21.855469 18.9375 20.34375 20.558594 C 20.292969 20.613281 20.246094 20.667969 20.195312 20.722656 C 18.878906 22.148438 17 23.09375 15.164062 23.628906 C 15.097656 23.648438 15.03125 23.667969 14.964844 23.6875 C 12.714844 24.324219 10.152344 24.179688 7.953125 23.441406 C 7.910156 22.773438 7.980469 22.140625 8.085938 21.484375 C 8.097656 21.402344 8.109375 21.324219 8.121094 21.246094 C 8.214844 20.675781 8.214844 20.675781 8.320312 20.464844 C 8.25 20.488281 8.179688 20.511719 8.109375 20.539062 C 7.785156 20.648438 7.460938 20.757812 7.136719 20.867188 C 7.027344 20.902344 6.917969 20.941406 6.800781 20.980469 C 6.289062 21.152344 5.777344 21.324219 5.257812 21.476562 C 5.140625 21.507812 5.140625 21.507812 5.019531 21.542969 C 4.789062 21.585938 4.65625 21.570312 4.4375 21.488281 C 4.109375 21.234375 3.816406 20.9375 3.515625 20.652344 C 3.4375 20.578125 3.359375 20.507812 3.28125 20.433594 C 2.003906 19.210938 1.101562 17.65625 0.507812 15.996094 C 0.484375 15.929688 0.464844 15.867188 0.441406 15.804688 C 0.253906 15.242188 0.101562 14.742188 0.308594 14.164062 C 0.371094 14.046875 0.433594 13.929688 0.496094 13.8125 C 0.53125 13.75 0.5625 13.6875 0.597656 13.621094 C 0.671875 13.488281 0.742188 13.355469 0.816406 13.222656 C 0.921875 13.03125 1.023438 12.835938 1.125 12.640625 C 1.582031 11.789062 2.105469 11.007812 2.679688 10.234375 C 2.566406 10.261719 2.566406 10.261719 2.445312 10.292969 C 2.15625 10.363281 1.867188 10.4375 1.582031 10.511719 C 1.457031 10.542969 1.332031 10.574219 1.207031 10.605469 C 1.027344 10.652344 0.847656 10.695312 0.667969 10.742188 C 0.558594 10.769531 0.453125 10.796875 0.339844 10.824219 C 0.09375 10.882812 0.09375 10.882812 0 10.882812 C -0.167969 8.585938 1.179688 6 2.621094 4.304688 C 2.964844 3.910156 3.320312 3.523438 3.699219 3.164062 C 3.761719 3.101562 3.824219 3.042969 3.886719 2.980469 C 6.0625 0.914062 9 -0.0625 11.957031 -0.0390625 Z M 11.957031 -0.0390625 "/>
<path style=" stroke:none;fill-rule:nonzero;fill:rgb(2.352941%,60.392159%,76.862746%);fill-opacity:1;" d="M 23.300781 14.976562 C 23.363281 14.976562 23.421875 14.976562 23.484375 14.976562 C 22.964844 17.152344 21.855469 18.9375 20.34375 20.558594 C 20.269531 20.640625 20.269531 20.640625 20.195312 20.722656 C 18.878906 22.148438 17 23.09375 15.164062 23.628906 C 15.066406 23.65625 15.066406 23.65625 14.964844 23.6875 C 12.714844 24.324219 10.152344 24.179688 7.953125 23.441406 C 7.910156 22.773438 7.980469 22.140625 8.085938 21.484375 C 8.097656 21.402344 8.109375 21.324219 8.121094 21.246094 C 8.214844 20.675781 8.214844 20.675781 8.320312 20.464844 C 8.261719 20.433594 8.199219 20.402344 8.136719 20.371094 C 8.191406 20.351562 8.25 20.328125 8.304688 20.308594 C 10.488281 19.46875 12.585938 18.492188 14.605469 17.300781 C 14.683594 17.253906 14.765625 17.207031 14.851562 17.15625 C 14.917969 17.117188 14.988281 17.074219 15.0625 17.03125 C 15.25 16.933594 15.417969 16.878906 15.625 16.835938 C 15.5 17.253906 15.332031 17.632812 15.140625 18.023438 C 14.542969 19.285156 14.175781 20.578125 13.960938 21.953125 C 17.0625 20.371094 19.828125 18.3125 22.386719 15.960938 C 22.460938 15.890625 22.460938 15.890625 22.539062 15.824219 C 22.757812 15.617188 22.953125 15.414062 23.140625 15.175781 C 23.191406 15.109375 23.246094 15.042969 23.300781 14.976562 Z M 23.300781 14.976562 "/>
<path style=" stroke:none;fill-rule:nonzero;fill:rgb(8.235294%,48.627451%,65.882355%);fill-opacity:1;" d="M 23.300781 14.976562 C 23.363281 14.976562 23.421875 14.976562 23.484375 14.976562 C 22.964844 17.152344 21.855469 18.9375 20.34375 20.558594 C 20.269531 20.640625 20.269531 20.640625 20.195312 20.722656 C 18.878906 22.148438 17 23.09375 15.164062 23.628906 C 15.066406 23.65625 15.066406 23.65625 14.964844 23.6875 C 13.429688 24.121094 11.84375 24.039062 10.265625 24 C 10.265625 23.9375 10.265625 23.878906 10.265625 23.8125 C 10.34375 23.777344 10.425781 23.738281 10.507812 23.699219 C 10.808594 23.558594 11.109375 23.417969 11.410156 23.277344 C 11.539062 23.21875 11.667969 23.15625 11.796875 23.097656 C 11.984375 23.007812 12.171875 22.921875 12.359375 22.832031 C 12.417969 22.804688 12.480469 22.777344 12.542969 22.746094 C 12.859375 22.597656 13.171875 22.445312 13.484375 22.285156 C 13.777344 22.140625 13.777344 22.140625 13.960938 22.140625 C 13.960938 22.078125 13.960938 22.015625 13.960938 21.953125 C 14.054688 21.90625 14.144531 21.859375 14.238281 21.8125 C 17.230469 20.265625 19.910156 18.238281 22.386719 15.960938 C 22.460938 15.890625 22.460938 15.890625 22.539062 15.824219 C 22.757812 15.617188 22.953125 15.414062 23.140625 15.175781 C 23.191406 15.109375 23.246094 15.042969 23.300781 14.976562 Z M 23.300781 14.976562 "/>
</g>
</svg>
